<svg xmlns="http://www.w3.org/2000/svg" width="354" height="360" viewBox="0 0 354 360">
<g>
<path d="M 212.50 335.02 C191.09,340.50 169.48,337.29 149.50,325.64 C142.67,321.67 126.83,306.97 122.32,300.43 C118.25,294.52 113.00,283.38 110.57,275.50 C107.69,266.13 105.66,239.34 107.90,240.17 C108.39,240.35 113.28,243.17 118.77,246.44 L 128.75 252.38 L 129.36 259.00 C130.65,272.89 137.15,286.14 148.02,297.09 C171.16,320.39 206.99,322.19 232.48,301.34 C244.42,291.57 251.03,279.89 254.23,262.94 L 256.31 251.94 L 265.97 246.47 C271.28,243.46 275.94,241.00 276.31,241.00 C277.55,241.00 277.03,260.67 275.59,268.16 C269.35,300.66 244.72,326.76 212.50,335.02 ZM 216.60 121.36 C217.41,126.79 217.95,134.78 217.79,139.11 L 217.50 147.00 L 207.06 140.73 C197.32,134.88 196.61,134.23 196.29,130.98 C195.00,117.50 190.33,105.41 182.60,95.53 C168.53,77.54 147.13,68.79 124.81,71.89 C109.48,74.03 98.09,79.96 87.07,91.57 C78.50,100.58 73.80,109.50 71.52,121.04 C68.51,136.24 69.37,134.84 59.48,140.67 C54.54,143.58 49.87,145.97 49.11,145.98 C47.96,146.00 47.82,143.77 48.31,133.25 C49.06,117.14 50.79,110.01 57.02,97.50 C63.35,84.77 71.78,74.62 82.83,66.45 C98.18,55.08 113.82,50.00 133.39,50.00 C145.75,50.00 155.31,51.82 165.72,56.16 C192.59,67.34 212.30,92.61 216.60,121.36 ZM 100.00 136.75 C100.00,141.84 99.65,146.00 99.21,146.00 C98.78,146.00 94.17,143.56 88.96,140.57 L 79.50 135.14 L 79.54 127.74 C79.58,121.17 80.05,119.38 83.74,111.69 C91.16,96.23 104.54,85.24 120.43,81.55 C139.11,77.22 156.60,82.05 170.82,95.47 C178.33,102.55 182.91,110.36 185.48,120.46 C187.19,127.16 187.50,136.00 186.04,136.00 C185.50,136.00 181.79,137.97 177.79,140.38 C177.30,140.68 176.83,140.96 176.38,141.23 C171.10,144.42 168.57,145.94 167.31,145.23 C166.05,144.52 166.05,141.56 165.83,135.78 C165.47,126.41 165.13,124.95 162.06,119.21 C158.09,111.82 153.68,107.67 146.05,104.14 C138.75,100.76 127.87,100.62 120.74,103.81 C113.83,106.90 106.21,114.44 102.85,121.50 C100.36,126.76 100.00,128.65 100.00,136.75 ZM 204.06 305.91 C192.84,308.69 188.71,308.53 177.00,304.87 C158.25,299.00 143.80,283.97 139.54,265.91 C137.34,256.59 137.53,252.78 140.25,251.05 C145.57,247.67 156.38,242.00 157.50,242.00 C158.35,242.00 158.88,244.93 159.22,251.46 C159.63,259.23 160.22,261.90 162.54,266.49 C165.91,273.15 173.32,280.37 179.67,283.18 C193.98,289.51 209.93,284.59 219.23,270.97 C223.76,264.34 224.75,261.04 225.62,249.73 C225.99,244.93 226.57,241.02 226.90,241.04 C227.23,241.07 231.55,243.43 236.50,246.30 L 245.50 251.51 L 245.81 256.89 C246.42,267.60 239.19,283.41 229.62,292.29 C222.97,298.47 213.30,303.62 204.06,305.91 ZM 259.51 149.85 C258.73,151.31 256.57,154.25 254.73,156.40 L 251.38 160.29 L 247.81 155.90 C239.62,145.78 238.83,139.42 244.75,131.01 C250.23,123.23 251.50,122.73 255.11,127.00 C260.05,132.86 262.33,138.54 261.59,143.16 C261.23,145.39 260.30,148.40 259.51,149.85 ZM 140.79 150.63 C139.34,152.76 137.08,155.79 135.78,157.36 L 133.42 160.21 L 129.66 155.63 C124.41,149.22 123.01,146.17 123.01,141.09 C123.00,134.47 130.84,122.96 134.42,124.33 C135.24,124.65 137.61,127.45 139.67,130.56 C144.53,137.87 144.90,144.60 140.79,150.63 ZM 78.24 259.22 C76.23,261.85 74.31,264.00 73.96,264.00 C72.65,264.00 64.96,252.59 63.91,249.09 C62.33,243.81 64.07,238.49 69.36,232.50 L 73.77 227.50 L 76.04 229.50 C80.44,233.38 84.00,240.15 84.00,244.63 C84.00,250.10 82.72,253.33 78.24,259.22 ZM 199.07 255.05 C197.46,257.50 195.28,260.57 194.22,261.87 L 192.31 264.24 L 189.59 261.37 C182.30,253.67 179.95,244.87 183.40,238.20 C185.61,233.91 190.90,228.00 192.52,228.00 C193.24,228.00 195.67,230.75 197.92,234.11 C203.24,242.08 203.57,248.22 199.07,255.05 ZM 128.99 236.75 C129.00,240.19 128.66,242.99 128.25,242.98 C126.80,242.95 116.53,236.91 114.22,234.73 C109.63,230.43 107.87,226.30 107.28,218.51 C106.78,211.92 106.92,211.00 108.39,211.00 C111.20,211.00 119.28,215.58 123.20,219.40 C127.50,223.59 128.99,228.03 128.99,236.75 ZM 100.00 170.12 C100.00,173.29 99.65,176.10 99.22,176.36 C98.79,176.63 95.32,174.97 91.51,172.67 C82.12,167.01 79.08,162.56 78.40,153.46 C77.70,143.91 78.48,143.05 84.78,146.48 C96.34,152.77 100.00,158.46 100.00,170.12 ZM 216.96 161.37 C217.60,163.64 217.98,168.05 217.81,171.17 L 217.50 176.85 L 212.05 174.25 C205.10,170.94 198.47,164.34 197.08,159.35 C195.64,154.16 195.67,144.00 197.13,144.00 C199.29,144.00 208.83,150.06 212.31,153.64 C214.23,155.62 216.33,159.10 216.96,161.37 ZM 246.99 237.25 C247.00,243.97 246.60,244.11 239.50,239.83 C229.25,233.65 226.54,229.79 225.57,220.00 C224.65,210.65 225.55,209.77 232.46,213.37 C242.83,218.76 246.98,225.58 246.99,237.25 ZM 128.80 177.19 C129.33,186.27 129.10,186.42 121.52,181.98 C114.51,177.87 109.53,172.72 108.17,168.17 C106.55,162.78 106.62,153.00 108.27,153.00 C111.37,153.00 122.40,160.73 125.30,164.94 C127.90,168.72 128.42,170.52 128.80,177.19 ZM 217.99 228.25 C218.00,231.41 217.66,233.99 217.25,233.98 C214.95,233.93 204.97,227.42 201.77,223.89 C197.52,219.22 196.01,214.84 196.01,207.18 C196.00,202.13 196.11,201.90 198.25,202.54 C202.54,203.84 210.91,209.10 213.41,212.07 C216.56,215.82 217.99,220.86 217.99,228.25 ZM 263.56 239.48 C260.29,241.41 257.21,243.00 256.71,243.00 C256.21,243.00 255.96,239.02 256.15,234.09 C256.47,225.90 256.75,224.88 259.55,221.41 C262.44,217.85 273.04,211.04 275.75,211.01 C276.61,211.00 277.00,212.81 276.99,216.75 C276.98,228.36 274.11,233.21 263.56,239.48 ZM 217.81 197.58 C218.05,202.21 218.08,205.99 217.88,205.97 C217.67,205.95 214.88,204.43 211.67,202.60 C203.98,198.18 198.54,192.75 197.14,188.07 C195.65,183.11 195.64,173.00 197.11,173.00 C199.61,173.00 212.67,182.20 214.93,185.55 C216.90,188.47 217.45,190.78 217.81,197.58 ZM 99.98 228.19 C99.99,230.77 99.64,233.10 99.20,233.37 C98.08,234.07 88.08,228.45 84.67,225.20 C80.38,221.13 79.04,217.81 78.34,209.53 C77.59,200.61 77.78,200.51 86.45,205.33 C96.28,210.80 99.92,216.95 99.98,228.19 ZM 128.98 206.69 C128.99,210.10 128.65,213.10 128.22,213.36 C126.55,214.40 113.53,205.42 110.56,201.19 C107.99,197.52 107.48,195.76 107.16,189.44 C106.90,184.31 107.14,182.00 107.92,182.00 C109.83,182.00 118.51,186.72 122.00,189.65 C126.61,193.53 128.95,199.25 128.98,206.69 ZM 99.74 197.02 C100.39,206.59 100.02,206.77 91.41,201.14 C83.77,196.14 80.45,192.45 79.10,187.50 C77.91,183.14 77.62,174.71 78.62,173.71 C79.32,173.01 85.51,175.98 91.23,179.77 C97.05,183.62 99.11,187.79 99.74,197.02 ZM 143.98 240.51 C141.28,241.88 138.83,243.00 138.53,243.00 C138.24,243.00 138.00,239.51 138.01,235.25 C138.01,226.37 140.00,221.96 146.00,217.46 C150.96,213.75 156.90,210.82 158.03,211.52 C159.34,212.33 159.25,221.56 157.88,226.50 C156.56,231.30 150.89,237.01 143.98,240.51 ZM 61.87 169.21 C56.82,173.31 49.53,177.20 48.62,176.29 C48.28,175.95 48.00,173.38 48.01,170.58 C48.02,159.44 51.52,153.77 62.30,147.42 C65.50,145.54 68.31,144.00 68.55,144.00 C69.64,144.00 68.86,159.40 67.62,162.37 C66.86,164.18 64.27,167.26 61.87,169.21 ZM 246.77 205.30 C247.03,209.40 246.83,212.99 246.31,213.31 C245.13,214.04 235.42,208.62 231.66,205.13 C227.27,201.06 225.78,197.30 225.63,189.91 C225.56,186.21 225.79,182.88 226.15,182.52 C226.51,182.16 228.54,182.80 230.65,183.96 C243.31,190.86 246.08,194.53 246.77,205.30 ZM 57.74 200.94 C48.93,206.69 47.99,206.48 48.02,198.75 C48.06,188.06 51.91,182.34 63.36,175.96 L 69.21 172.69 L 68.86 181.60 C68.43,192.35 66.95,194.91 57.74,200.94 ZM 180.67 168.57 C178.70,170.18 174.82,172.76 172.05,174.31 L 167.00 177.12 L 167.00 168.76 C167.00,161.43 167.32,159.90 169.62,156.35 C172.18,152.42 179.28,146.98 184.45,145.02 L 187.00 144.05 L 187.00 151.56 C187.00,160.53 185.47,164.65 180.67,168.57 ZM 268.75 178.04 C266.35,179.73 262.50,182.24 260.19,183.61 L 256.00 186.11 L 256.00 178.52 C256.00,167.28 258.85,162.55 269.18,156.67 C276.33,152.59 277.00,152.90 276.98,160.25 C276.95,168.53 274.39,174.06 268.75,178.04 ZM 246.74 177.02 C247.39,186.58 247.03,186.76 238.39,181.17 C228.20,174.59 225.72,170.49 225.58,160.02 C225.48,152.90 226.86,152.61 235.39,158.00 C243.99,163.43 246.04,166.88 246.74,177.02 ZM 142.79 212.09 C140.75,213.14 138.84,214.00 138.54,214.00 C138.24,214.00 138.00,210.90 138.00,207.12 C138.00,195.96 140.98,191.30 152.08,185.11 C155.15,183.40 157.89,182.00 158.17,182.00 C158.45,182.00 158.78,184.92 158.89,188.49 C159.26,199.62 155.05,205.79 142.79,212.09 ZM 263.66 210.14 C259.90,212.26 256.64,214.00 256.41,214.00 C255.52,214.00 256.07,199.96 257.07,197.32 C257.65,195.77 259.12,193.43 260.32,192.11 C262.94,189.25 271.57,183.57 274.88,182.53 L 277.27 181.78 L 276.80 189.93 C276.19,200.42 273.47,204.60 263.66,210.14 ZM 55.38 231.06 C52.56,232.68 49.75,234.00 49.13,234.00 C47.69,234.00 47.63,223.86 49.04,218.79 C50.32,214.17 54.39,210.04 62.12,205.51 C65.41,203.58 68.31,202.00 68.55,202.00 C69.47,202.00 68.96,215.98 67.94,218.68 C66.45,222.63 61.40,227.61 55.38,231.06 ZM 170.32 203.86 C167.41,205.38 167.33,205.35 166.63,202.75 C163.74,191.97 169.45,181.86 182.04,175.48 L 187.00 172.97 L 187.00 180.52 C187.00,192.07 183.50,196.96 170.32,203.86 ZM 152.67 176.35 C150.37,178.63 146.13,181.77 143.24,183.31 L 138.00 186.12 L 138.00 178.40 C138.00,168.27 140.42,163.91 149.28,158.15 C152.78,155.87 156.12,154.00 156.71,154.00 C158.18,154.00 159.00,156.46 158.99,160.83 C158.98,167.23 157.03,172.03 152.67,176.35 ZM 180.51 225.85 C178.54,227.59 174.65,230.16 171.86,231.57 L 166.80 234.14 L 167.15 225.24 C167.46,217.34 167.81,215.93 170.27,212.71 C172.58,209.68 184.11,202.00 186.35,202.00 C186.71,202.00 187.00,205.40 187.00,209.55 C187.00,218.17 185.78,221.23 180.51,225.85 Z" fill="rgb(79,151,99)"/>
<path d="M 0.00 180.00 L 0.00 0.00 L 177.00 0.00 L 354.00 0.00 L 354.00 180.00 L 354.00 360.00 L 177.00 360.00 L 0.00 360.00 L 0.00 180.00 ZM 212.50 335.02 C244.72,326.76 269.35,300.66 275.59,268.16 C277.03,260.67 277.55,241.00 276.31,241.00 C275.94,241.00 271.28,243.46 265.97,246.47 L 256.31 251.94 L 254.23 262.94 C251.03,279.89 244.42,291.57 232.48,301.34 C206.99,322.19 171.16,320.39 148.02,297.09 C137.15,286.14 130.65,272.89 129.36,259.00 L 128.75 252.38 L 118.77 246.44 C113.28,243.17 108.39,240.35 107.90,240.17 C105.66,239.34 107.69,266.13 110.57,275.50 C113.00,283.38 118.25,294.52 122.32,300.43 C126.83,306.97 142.67,321.67 149.50,325.64 C169.48,337.29 191.09,340.50 212.50,335.02 ZM 204.06 305.91 C213.30,303.62 222.97,298.47 229.62,292.29 C239.19,283.41 246.42,267.60 245.81,256.89 L 245.50 251.51 L 236.50 246.30 C231.55,243.43 227.23,241.07 226.90,241.04 C226.57,241.02 225.99,244.93 225.62,249.73 C224.75,261.04 223.76,264.34 219.23,270.97 C209.93,284.59 193.98,289.51 179.67,283.18 C173.32,280.37 165.91,273.15 162.54,266.49 C160.22,261.90 159.63,259.23 159.22,251.46 C158.88,244.93 158.35,242.00 157.50,242.00 C156.38,242.00 145.57,247.67 140.25,251.05 C137.53,252.78 137.34,256.59 139.54,265.91 C143.80,283.97 158.25,299.00 177.00,304.87 C188.71,308.53 192.84,308.69 204.06,305.91 ZM 78.24 259.22 C82.72,253.33 84.00,250.10 84.00,244.63 C84.00,240.15 80.44,233.38 76.04,229.50 L 73.77 227.50 L 69.36 232.50 C64.07,238.49 62.33,243.81 63.91,249.09 C64.96,252.59 72.65,264.00 73.96,264.00 C74.31,264.00 76.23,261.85 78.24,259.22 ZM 199.07 255.05 C203.57,248.22 203.24,242.08 197.92,234.11 C195.67,230.75 193.24,228.00 192.52,228.00 C190.90,228.00 185.61,233.91 183.40,238.20 C179.95,244.87 182.30,253.67 189.59,261.37 L 192.31 264.24 L 194.22 261.87 C195.28,260.57 197.46,257.50 199.07,255.05 ZM 128.99 236.75 C128.99,228.03 127.50,223.59 123.20,219.40 C119.28,215.58 111.20,211.00 108.39,211.00 C106.92,211.00 106.78,211.92 107.28,218.51 C107.87,226.30 109.63,230.43 114.22,234.73 C116.53,236.91 126.80,242.95 128.25,242.98 C128.66,242.99 129.00,240.19 128.99,236.75 ZM 143.98 240.51 C150.89,237.01 156.56,231.30 157.88,226.50 C159.25,221.56 159.34,212.33 158.03,211.52 C156.90,210.82 150.96,213.75 146.00,217.46 C140.00,221.96 138.01,226.37 138.01,235.25 C138.00,239.51 138.24,243.00 138.53,243.00 C138.83,243.00 141.28,241.88 143.98,240.51 ZM 246.99 237.25 C246.98,225.58 242.83,218.76 232.46,213.37 C225.55,209.77 224.65,210.65 225.57,220.00 C226.54,229.79 229.25,233.65 239.50,239.83 C246.60,244.11 247.00,243.97 246.99,237.25 ZM 263.56 239.48 C274.11,233.21 276.98,228.36 276.99,216.75 C277.00,212.81 276.61,211.00 275.75,211.01 C273.04,211.04 262.44,217.85 259.55,221.41 C256.75,224.88 256.47,225.90 256.15,234.09 C255.96,239.02 256.21,243.00 256.71,243.00 C257.21,243.00 260.29,241.41 263.56,239.48 ZM 55.38 231.06 C61.40,227.61 66.45,222.63 67.94,218.68 C68.96,215.98 69.47,202.00 68.55,202.00 C68.31,202.00 65.41,203.58 62.12,205.51 C54.39,210.04 50.32,214.17 49.04,218.79 C47.63,223.86 47.69,234.00 49.13,234.00 C49.75,234.00 52.56,232.68 55.38,231.06 ZM 99.98 228.19 C99.92,216.95 96.28,210.80 86.45,205.33 C77.78,200.51 77.59,200.61 78.34,209.53 C79.04,217.81 80.38,221.13 84.67,225.20 C88.08,228.45 98.08,234.07 99.20,233.37 C99.64,233.10 99.99,230.77 99.98,228.19 ZM 180.51 225.85 C185.78,221.23 187.00,218.17 187.00,209.55 C187.00,205.40 186.71,202.00 186.35,202.00 C184.11,202.00 172.58,209.68 170.27,212.71 C167.81,215.93 167.46,217.34 167.15,225.24 L 166.80 234.14 L 171.86 231.57 C174.65,230.16 178.54,227.59 180.51,225.85 ZM 217.99 228.25 C217.99,220.86 216.56,215.82 213.41,212.07 C210.91,209.10 202.54,203.84 198.25,202.54 C196.11,201.90 196.00,202.13 196.01,207.18 C196.01,214.84 197.52,219.22 201.77,223.89 C204.97,227.42 214.95,233.93 217.25,233.98 C217.66,233.99 218.00,231.41 217.99,228.25 ZM 128.98 206.69 C128.95,199.25 126.61,193.53 122.00,189.65 C118.51,186.72 109.83,182.00 107.92,182.00 C107.14,182.00 106.90,184.31 107.16,189.44 C107.48,195.76 107.99,197.52 110.56,201.19 C113.53,205.42 126.55,214.40 128.22,213.36 C128.65,213.10 128.99,210.10 128.98,206.69 ZM 142.79 212.09 C155.05,205.79 159.26,199.62 158.89,188.49 C158.78,184.92 158.45,182.00 158.17,182.00 C157.89,182.00 155.15,183.40 152.08,185.11 C140.98,191.30 138.00,195.96 138.00,207.12 C138.00,210.90 138.24,214.00 138.54,214.00 C138.84,214.00 140.75,213.14 142.79,212.09 ZM 246.77 205.30 C246.08,194.53 243.31,190.86 230.65,183.96 C228.54,182.80 226.51,182.16 226.15,182.52 C225.79,182.88 225.56,186.21 225.63,189.91 C225.78,197.30 227.27,201.06 231.66,205.13 C235.42,208.62 245.13,214.04 246.31,213.31 C246.83,212.99 247.03,209.40 246.77,205.30 ZM 263.66 210.14 C273.47,204.60 276.19,200.42 276.80,189.93 L 277.27 181.78 L 274.88 182.53 C271.57,183.57 262.94,189.25 260.32,192.11 C259.12,193.43 257.65,195.77 257.07,197.32 C256.07,199.96 255.52,214.00 256.41,214.00 C256.64,214.00 259.90,212.26 263.66,210.14 ZM 217.81 197.58 C217.45,190.78 216.90,188.47 214.93,185.55 C212.67,182.20 199.61,173.00 197.11,173.00 C195.64,173.00 195.65,183.11 197.14,188.07 C198.54,192.75 203.98,198.18 211.67,202.60 C214.88,204.43 217.67,205.95 217.88,205.97 C218.08,205.99 218.05,202.21 217.81,197.58 ZM 57.74 200.94 C66.95,194.91 68.43,192.35 68.86,181.60 L 69.21 172.69 L 63.36 175.96 C51.91,182.34 48.06,188.06 48.02,198.75 C47.99,206.48 48.93,206.69 57.74,200.94 ZM 99.74 197.02 C99.11,187.79 97.05,183.62 91.23,179.77 C85.51,175.98 79.32,173.01 78.62,173.71 C77.62,174.71 77.91,183.14 79.10,187.50 C80.45,192.45 83.77,196.14 91.41,201.14 C100.02,206.77 100.39,206.59 99.74,197.02 ZM 170.32 203.86 C183.50,196.96 187.00,192.07 187.00,180.52 L 187.00 172.97 L 182.04 175.48 C169.45,181.86 163.74,191.97 166.63,202.75 C167.33,205.35 167.41,205.38 170.32,203.86 ZM 152.67 176.35 C157.03,172.03 158.98,167.23 158.99,160.83 C159.00,156.46 158.18,154.00 156.71,154.00 C156.12,154.00 152.78,155.87 149.28,158.15 C140.42,163.91 138.00,168.27 138.00,178.40 L 138.00 186.12 L 143.24 183.31 C146.13,181.77 150.37,178.63 152.67,176.35 ZM 268.75 178.04 C274.39,174.06 276.95,168.53 276.98,160.25 C277.00,152.90 276.33,152.59 269.18,156.67 C258.85,162.55 256.00,167.28 256.00,178.52 L 256.00 186.11 L 260.19 183.61 C262.50,182.24 266.35,179.73 268.75,178.04 ZM 128.80 177.19 C128.42,170.52 127.90,168.72 125.30,164.94 C122.40,160.73 111.37,153.00 108.27,153.00 C106.62,153.00 106.55,162.78 108.17,168.17 C109.53,172.72 114.51,177.87 121.52,181.98 C129.10,186.42 129.33,186.27 128.80,177.19 ZM 246.74 177.02 C246.04,166.88 243.99,163.43 235.39,158.00 C226.86,152.61 225.48,152.90 225.58,160.02 C225.72,170.49 228.20,174.59 238.39,181.17 C247.03,186.76 247.39,186.58 246.74,177.02 ZM 61.87 169.21 C64.27,167.26 66.86,164.18 67.62,162.37 C68.86,159.40 69.64,144.00 68.55,144.00 C68.31,144.00 65.50,145.54 62.30,147.42 C51.52,153.77 48.02,159.44 48.01,170.58 C48.00,173.38 48.28,175.95 48.62,176.29 C49.53,177.20 56.82,173.31 61.87,169.21 ZM 100.00 170.12 C100.00,158.46 96.34,152.77 84.78,146.48 C78.48,143.05 77.70,143.91 78.40,153.46 C79.08,162.56 82.12,167.01 91.51,172.67 C95.32,174.97 98.79,176.63 99.22,176.36 C99.65,176.10 100.00,173.29 100.00,170.12 ZM 180.67 168.57 C185.47,164.65 187.00,160.53 187.00,151.56 L 187.00 144.05 L 184.45 145.02 C179.28,146.98 172.18,152.42 169.62,156.35 C167.32,159.90 167.00,161.43 167.00,168.76 L 167.00 177.12 L 172.05 174.31 C174.82,172.76 178.70,170.18 180.67,168.57 ZM 216.96 161.37 C216.33,159.10 214.23,155.62 212.31,153.64 C208.83,150.06 199.29,144.00 197.13,144.00 C195.67,144.00 195.64,154.16 197.08,159.35 C198.47,164.34 205.10,170.94 212.05,174.25 L 217.50 176.85 L 217.81 171.17 C217.98,168.05 217.60,163.64 216.96,161.37 ZM 140.79 150.63 C144.90,144.60 144.53,137.87 139.67,130.56 C137.61,127.45 135.24,124.65 134.42,124.33 C130.84,122.96 123.00,134.47 123.01,141.09 C123.01,146.17 124.41,149.22 129.66,155.63 L 133.42 160.21 L 135.78 157.36 C137.08,155.79 139.34,152.76 140.79,150.63 ZM 259.51 149.85 C260.30,148.40 261.23,145.39 261.59,143.16 C262.33,138.54 260.05,132.86 255.11,127.00 C251.50,122.73 250.23,123.23 244.75,131.01 C238.83,139.42 239.62,145.78 247.81,155.90 L 251.38 160.29 L 254.73 156.40 C256.57,154.25 258.73,151.31 259.51,149.85 ZM 216.60 121.36 C212.30,92.61 192.59,67.34 165.72,56.16 C155.31,51.82 145.75,50.00 133.39,50.00 C113.82,50.00 98.18,55.08 82.83,66.45 C71.78,74.62 63.35,84.77 57.02,97.50 C50.79,110.01 49.06,117.14 48.31,133.25 C47.82,143.77 47.96,146.00 49.11,145.98 C49.87,145.97 54.54,143.58 59.48,140.67 C69.37,134.84 68.51,136.24 71.52,121.04 C73.80,109.50 78.50,100.58 87.07,91.57 C98.09,79.96 109.48,74.03 124.81,71.89 C147.13,68.79 168.53,77.54 182.60,95.53 C190.33,105.41 195.00,117.50 196.29,130.98 C196.61,134.23 197.32,134.88 207.06,140.73 L 217.50 147.00 L 217.79 139.11 C217.95,134.78 217.41,126.79 216.60,121.36 ZM 100.00 136.75 C100.00,128.65 100.36,126.76 102.85,121.50 C106.21,114.44 113.83,106.90 120.74,103.81 C127.87,100.62 138.75,100.76 146.05,104.14 C153.68,107.67 158.09,111.82 162.06,119.21 C165.13,124.95 165.47,126.41 165.83,135.78 C166.30,147.82 165.77,147.62 177.79,140.38 C181.79,137.97 185.50,136.00 186.04,136.00 C187.50,136.00 187.19,127.16 185.48,120.46 C182.91,110.36 178.33,102.55 170.82,95.47 C156.60,82.05 139.11,77.22 120.43,81.55 C104.54,85.24 91.16,96.23 83.74,111.69 C80.05,119.38 79.58,121.17 79.54,127.74 L 79.50 135.14 L 88.96 140.57 C94.17,143.56 98.78,146.00 99.21,146.00 C99.65,146.00 100.00,141.84 100.00,136.75 Z" fill="rgb(253,254,253)"/>
</g>
</svg>